{
    "asset" : {
        "generator" : "Khronos glTF Blender I/O v1.3.48",
        "version" : "2.0"
    },
    "scene" : 0,
    "scenes" : [
        {
            "name" : "Scene",
            "nodes" : [
                0
            ]
        }
    ],
    "nodes" : [
        {
            "mesh" : 0,
            "name" : "Cylinder.001",
            "rotation" : [
                0,
                1,
                0,
                -1.6292068494294654e-07
            ],
            "scale" : [
                1,
                2.37577748298645,
                1
            ],
            "translation" : [
                2.7317116260528564,
                -0.992490828037262,
                -0.5756961107254028
            ]
        }
    ],
    "materials" : [
        {
            "doubleSided" : true,
            "emissiveFactor" : [
                0,
                0,
                0
            ],
            "name" : "Material.002",
            "pbrMetallicRoughness" : {
                "baseColorFactor" : [
                    0.018052848055958748,
                    0.018052848055958748,
                    0.018052848055958748,
                    1
                ],
                "metallicFactor" : 0.04545454680919647,
                "roughnessFactor" : 0.3590908944606781
            }
        },
        {
            "doubleSided" : true,
            "emissiveFactor" : [
                0,
                0,
                0
            ],
            "name" : "Material.001",
            "pbrMetallicRoughness" : {
                "baseColorFactor" : [
                    0.8000000715255737,
                    0.008379565551877022,
                    0.008379565551877022,
                    1
                ],
                "metallicFactor" : 0.13181817531585693,
                "roughnessFactor" : 0.663636326789856
            }
        }
    ],
    "meshes" : [
        {
            "name" : "Cylinder.004",
            "primitives" : [
                {
                    "attributes" : {
                        "POSITION" : 0,
                        "NORMAL" : 1,
                        "TEXCOORD_0" : 2
                    },
                    "indices" : 3,
                    "material" : 0
                },
                {
                    "attributes" : {
                        "POSITION" : 4,
                        "NORMAL" : 5,
                        "TEXCOORD_0" : 6
                    },
                    "indices" : 7,
                    "material" : 1
                }
            ]
        }
    ],
    "accessors" : [
        {
            "bufferView" : 0,
            "componentType" : 5126,
            "count" : 1371,
            "max" : [
                15.690584182739258,
                7.37465238571167,
                0.8971241116523743
            ],
            "min" : [
                -2.445204734802246,
                0.5226296186447144,
                -0.8971198201179504
            ],
            "type" : "VEC3"
        },
        {
            "bufferView" : 1,
            "componentType" : 5126,
            "count" : 1371,
            "type" : "VEC3"
        },
        {
            "bufferView" : 2,
            "componentType" : 5126,
            "count" : 1371,
            "type" : "VEC2"
        },
        {
            "bufferView" : 3,
            "componentType" : 5123,
            "count" : 2514,
            "type" : "SCALAR"
        },
        {
            "bufferView" : 4,
            "componentType" : 5126,
            "count" : 1094,
            "max" : [
                15.022319793701172,
                6.819283485412598,
                0.8971241116523743
            ],
            "min" : [
                -1.7769403457641602,
                2.31687068939209,
                -0.8971198201179504
            ],
            "type" : "VEC3"
        },
        {
            "bufferView" : 5,
            "componentType" : 5126,
            "count" : 1094,
            "type" : "VEC3"
        },
        {
            "bufferView" : 6,
            "componentType" : 5126,
            "count" : 1094,
            "type" : "VEC2"
        },
        {
            "bufferView" : 7,
            "componentType" : 5123,
            "count" : 1746,
            "type" : "SCALAR"
        }
    ],
    "bufferViews" : [
        {
            "buffer" : 0,
            "byteLength" : 16452,
            "byteOffset" : 0
        },
        {
            "buffer" : 0,
            "byteLength" : 16452,
            "byteOffset" : 16452
        },
        {
            "buffer" : 0,
            "byteLength" : 10968,
            "byteOffset" : 32904
        },
        {
            "buffer" : 0,
            "byteLength" : 5028,
            "byteOffset" : 43872
        },
        {
            "buffer" : 0,
            "byteLength" : 13128,
            "byteOffset" : 48900
        },
        {
            "buffer" : 0,
            "byteLength" : 13128,
            "byteOffset" : 62028
        },
        {
            "buffer" : 0,
            "byteLength" : 8752,
            "byteOffset" : 75156
        },
        {
            "buffer" : 0,
            "byteLength" : 3492,
            "byteOffset" : 83908
        }
    ],
    "buffers" : [
        {
            "byteLength" : 87400,
            "uri" : "data:application/octet-stream;base64,"
        }
    ]
}
